<?xml version="1.0" encoding="UTF-8" standalone="no"?>
<!-- Generator: Adobe Illustrator 27.3.1, SVG Export Plug-In . SVG Version: 6.00 Build 0)  -->

<svg
   version="1.1"
   id="Warstwa_1"
   x="0px"
   y="0px"
   width="100.2"
   height="100.1"
   viewBox="0 0 100.19999 100.09999"
   xml:space="preserve"
   sodipodi:docname="Stowarzyszenie_Szansa_logo_male.svg"
   inkscape:version="1.2.1 (9c6d41e410, 2022-07-14)"
   xmlns:inkscape="http://www.inkscape.org/namespaces/inkscape"
   xmlns:sodipodi="http://sodipodi.sourceforge.net/DTD/sodipodi-0.dtd"
   xmlns="http://www.w3.org/2000/svg"
   xmlns:svg="http://www.w3.org/2000/svg"><defs
   id="defs99" /><sodipodi:namedview
   id="namedview97"
   pagecolor="#ffffff"
   bordercolor="#000000"
   borderopacity="0.25"
   inkscape:showpageshadow="2"
   inkscape:pageopacity="0"
   inkscape:pagecheckerboard="0"
   inkscape:deskcolor="#d1d1d1"
   showgrid="false"
   inkscape:zoom="1.7171801"
   inkscape:cx="159.56393"
   inkscape:cy="164.80508"
   inkscape:window-width="1920"
   inkscape:window-height="1009"
   inkscape:window-x="-8"
   inkscape:window-y="-8"
   inkscape:window-maximized="1"
   inkscape:current-layer="Warstwa_1" />
<style
   type="text/css"
   id="style2">
	.st0{fill:#004B87;}
	.st1{fill:#00A3F4;}
</style>

<path
   class="st1"
   d="m 42.438397,32.886675 c -2.204388,0 -4.247478,0.860249 -5.699148,2.473215 -1.666732,1.828029 -2.526981,4.462541 -2.526981,7.634708 0,2.580747 0.860249,5.269024 2.580746,8.011069 1.344139,2.150622 3.225933,4.301244 5.591617,6.451866 3.978651,3.602292 8.011069,5.914211 8.064835,5.914211 l 0.268828,0.161296 0.268827,-0.161296 c 0.05377,0 4.086182,-2.311919 8.064833,-5.914211 2.365684,-2.150622 4.247478,-4.301244 5.591617,-6.451866 1.720498,-2.688279 2.580746,-5.376557 2.580746,-8.011069 0,-3.225933 -0.860248,-5.860445 -2.52698,-7.634708 -1.45167,-1.612966 -3.494761,-2.473215 -5.699149,-2.473215 -1.935559,0 -3.871119,0.698952 -5.484086,1.93556 -1.236607,0.96778 -2.204387,2.258153 -2.795808,3.763588 -0.591421,-1.505435 -1.559201,-2.795808 -2.795811,-3.763588 -1.612967,-1.236608 -3.548526,-1.93556 -5.484086,-1.93556 v 0 c 0,0 0,0 0,0 z"
   id="path76"
   style="stroke-width:0.537655" />
<g
   id="g92"
   transform="matrix(0.53765549,0,0,0.53765549,-15.789693,-17.921769)">
	<path
   class="st0"
   d="m 184.3,124.3 c -3.2,-8.9 -2.9,-8.8 -4.2,-15.8 -0.4,-2.3 -0.3,-9.8 2,-11.8 0.4,1.1 0.8,2.1 1.1,3.1 1.6,5.5 3.1,11 4.5,16.6 0.5,3 -3.2,7.9 -3.4,7.9 z"
   id="path78" />
	<path
   class="st0"
   d="m 190,89.5 c 2.2,6.9 3.5,11 5.6,17.7 0.4,1 -0.7,4.8 -3.3,6.6 C 188.5,103 186.5,93 190,89.5 Z"
   id="path80" />
	<path
   class="st0"
   d="m 149.8,213.2 c -4,-4.4 -14.8,-27.1 -0.3,-45.6 5.6,-6.7 12.2,-12.5 20,-16.2 29.4,-14 14.7,-31.5 29.4,-35.8 0.1,1.3 1.4,12.5 -9.1,33.2 0.3,0.2 0.9,0.7 1.7,1.3 7.5,-7.1 16.9,-20.5 6,-54 -0.8,-2.4 -2.1,-10.6 0.5,-12.8 4.1,6.3 13.7,23.5 13.3,47.7 -0.2,9 -5,25.3 -17.7,38.1 -5.8,5.9 -13.1,10.1 -20.1,14.4 -19.4,11.2 -23.3,29.5 -23.7,29.7 z"
   id="path82" />
	<g
   id="g90">
		<path
   class="st0"
   d="m 97.4,213.2 c 4,-4.4 14.8,-27.1 0.3,-45.6 -5.6,-6.7 -12.2,-12.5 -20,-16.2 -29.4,-14 -14.7,-31.5 -29.4,-35.8 -0.1,1.3 -1.4,12.5 9.1,33.2 -0.3,0.2 -0.9,0.7 -1.7,1.3 -7.5,-7.1 -16.9,-20.5 -6,-54 0.8,-2.4 2.1,-10.6 -0.5,-12.8 -4.1,6.3 -13.7,23.5 -13.3,47.7 0.2,9 5,25.3 17.7,38.1 5.8,5.9 13.1,10.1 20.1,14.4 19.5,11.2 23.4,29.5 23.7,29.7 z"
   id="path84" />
		<path
   class="st0"
   d="m 63,124.3 c 3.2,-8.9 2.9,-8.8 4.2,-15.8 0.4,-2.3 0.3,-9.8 -2,-11.8 -0.4,1.1 -0.8,2.1 -1.1,3.1 -1.6,5.5 -3.1,11 -4.5,16.6 -0.5,3 3.2,7.9 3.4,7.9 z"
   id="path86" />
		<path
   class="st0"
   d="m 57.3,89.5 c -2.2,6.9 -3.5,11 -5.6,17.7 -0.4,1 0.7,4.8 3.3,6.6 C 58.8,103 60.8,93 57.3,89.5 Z"
   id="path88" />
	</g>
</g>
<path
   class="st1"
   d="m 50.664528,4.605996 c -15.00059,0 -28.334447,7.043287 -36.9907,17.957693 l 4.785134,2.742044 c 7.634708,-9.301441 19.248067,-15.215651 32.205566,-15.215651 12.957498,0 24.570856,5.91421 32.205564,15.215651 l 4.785134,-2.742044 C 78.998973,11.649283 65.665116,4.605996 50.664528,4.605996 Z"
   id="path94"
   style="stroke-width:0.537655" />
</svg>
