<?xml version="1.0" encoding="UTF-8" standalone="no"?>
<!-- Generator: Adobe Illustrator 27.3.1, SVG Export Plug-In . SVG Version: 6.00 Build 0)  -->

<svg
   version="1.1"
   id="Warstwa_1"
   x="0px"
   y="0px"
   width="510.2px"
   height="255.1px"
   viewBox="0 0 510.2 255.1"
   style="enable-background:new 0 0 510.2 255.1;"
   xml:space="preserve"
   sodipodi:docname="Stowarzyszenie_Szansa_logo.svg"
   inkscape:version="1.2.1 (9c6d41e410, 2022-07-14)"
   xmlns:inkscape="http://www.inkscape.org/namespaces/inkscape"
   xmlns:sodipodi="http://sodipodi.sourceforge.net/DTD/sodipodi-0.dtd"
   xmlns="http://www.w3.org/2000/svg"
   xmlns:svg="http://www.w3.org/2000/svg"><defs
   id="defs99" /><sodipodi:namedview
   id="namedview97"
   pagecolor="#ffffff"
   bordercolor="#000000"
   borderopacity="0.25"
   inkscape:showpageshadow="2"
   inkscape:pageopacity="0"
   inkscape:pagecheckerboard="0"
   inkscape:deskcolor="#d1d1d1"
   showgrid="false"
   inkscape:zoom="1.7171801"
   inkscape:cx="159.56393"
   inkscape:cy="164.80508"
   inkscape:window-width="1920"
   inkscape:window-height="1009"
   inkscape:window-x="-8"
   inkscape:window-y="-8"
   inkscape:window-maximized="1"
   inkscape:current-layer="Warstwa_1" />
<style
   type="text/css"
   id="style2">
	.st0{fill:#004B87;}
	.st1{fill:#00A3F4;}
</style>
<g
   id="g74">
	<g
   id="g16">
		<path
   class="st0"
   d="M262.1,114c-2.3-1.3-4.7-2.3-7.1-3.1c-2.4-0.8-4.7-1.2-6.8-1.2c-2.6,0-4.6,0.5-6.1,1.6    c-1.5,1-2.2,2.6-2.2,4.7c0,1.4,0.6,2.7,1.7,3.9c1.1,1.1,2.6,2.1,4.4,3c1.8,0.9,3.7,1.7,5.6,2.4c1.8,0.7,3.5,1.5,5.3,2.4    c1.7,0.9,3.3,2,4.7,3.4c1.4,1.4,2.5,3,3.3,5.1c0.8,2,1.2,4.5,1.2,7.4c0,3.1-0.8,6-2.4,8.6c-1.6,2.7-4,4.8-7,6.4    c-3.1,1.6-6.9,2.4-11.4,2.4c-2.3,0-4.7-0.2-7.1-0.7c-2.4-0.5-4.8-1.2-7.1-2.2c-2.3-1-4.6-2.2-6.7-3.7l5.3-9.4c1.4,1,3,2,4.7,2.8    c1.7,0.8,3.4,1.4,5.1,1.9c1.7,0.4,3.3,0.7,4.7,0.7c1.4,0,2.9-0.2,4.4-0.6c1.5-0.4,2.7-1.1,3.6-2.1c1-1,1.5-2.4,1.5-4.1    c0-1.2-0.4-2.3-1.2-3.3c-0.8-1-1.9-1.9-3.2-2.7c-1.4-0.8-2.8-1.5-4.4-2.2c-1.9-0.7-3.8-1.5-5.8-2.5c-2-0.9-3.9-2.1-5.6-3.4    c-1.7-1.4-3.1-3-4.2-5.1c-1.1-2-1.6-4.5-1.6-7.4c0-3.5,0.8-6.6,2.4-9.2c1.6-2.6,3.8-4.7,6.7-6.2c2.9-1.5,6.2-2.4,9.9-2.5    c4.9,0,8.9,0.6,12,1.7c3.1,1.2,5.8,2.5,8.2,4.1L262.1,114z"
   id="path4" />
		<path
   class="st0"
   d="M276.4,133.5c-2,0-3.7-0.7-5.2-2.2c-1.5-1.4-2.2-3.4-2.2-5.8v-5h8.7v1.2c0,1.2,0.2,1.8,0.6,2    c0.4,0.2,1.1,0.3,2.2,0.3h23l-20.1,29.2l-2.2-2.4h22v9.4h-36.7l20.6-30.1l1.7,3.3H276.4z"
   id="path6" />
		<path
   class="st0"
   d="M323.9,161.2c-3.4,0-6.4-0.7-9.2-2s-4.9-3.4-6.5-6.3c-1.6-2.8-2.4-6.4-2.4-10.8c0-4.1,0.8-7.6,2.5-10.6    c1.7-3,3.8-5.3,6.5-6.9c2.7-1.6,5.6-2.4,8.6-2.4c3.6,0,6.3,0.6,8.2,1.8c1.8,1.2,3.4,2.5,4.6,3.9l-0.5,1.4l1.1-5.3h10.8v36.2H336    v-7.9l0.9,2.5c-0.1,0-0.4,0.3-1,1c-0.6,0.6-1.4,1.4-2.4,2.2c-1.1,0.9-2.4,1.6-4,2.2C327.9,160.9,326,161.2,323.9,161.2z     M327.2,151.8c1.4,0,2.6-0.2,3.7-0.6c1.1-0.4,2.1-1,2.9-1.8c0.8-0.8,1.5-1.8,2.2-3v-8.9c-0.4-1.2-1.1-2.3-2-3.1    c-0.9-0.9-1.9-1.5-3.1-2c-1.2-0.5-2.6-0.7-4.1-0.7c-1.7,0-3.2,0.4-4.6,1.3c-1.4,0.9-2.5,2-3.4,3.5c-0.8,1.5-1.2,3.2-1.2,5.1    c0,1.9,0.4,3.7,1.3,5.2c0.9,1.5,2.1,2.8,3.5,3.6C323.9,151.3,325.5,151.8,327.2,151.8z"
   id="path8" />
		<path
   class="st0"
   d="M366.4,124l0.9,6.5l-0.2-0.6c1.3-2.3,3.1-4.1,5.4-5.5c2.3-1.4,5.2-2.1,8.5-2.1c3.4,0,6.3,1,8.6,3    c2.3,2,3.5,4.6,3.5,7.8v27.1h-11.6v-22.8c-0.1-1.6-0.5-2.9-1.3-3.9c-0.8-1-2.1-1.4-4-1.4c-1.8,0-3.3,0.6-4.6,1.7    c-1.3,1.2-2.3,2.7-3.1,4.7c-0.7,2-1.1,4.3-1.1,6.9v14.7h-11.6V124H366.4z"
   id="path10" />
		<path
   class="st0"
   d="M412.9,161c-3,0-5.8-0.5-8.3-1.6c-2.6-1-4.7-2.5-6.5-4.4l4.8-6.4c1.8,1.6,3.4,2.7,4.9,3.4    c1.5,0.7,2.9,1,4.1,1c0.9,0,1.8-0.1,2.5-0.3c0.7-0.2,1.3-0.5,1.8-0.9c0.4-0.4,0.7-1,0.7-1.6c0-0.9-0.4-1.7-1.1-2.2    c-0.7-0.6-1.7-1-2.9-1.4c-1.2-0.4-2.4-0.7-3.7-1.1c-3.3-1-5.7-2.6-7.2-4.6c-1.5-2-2.2-4.2-2.2-6.6c0-1.8,0.5-3.7,1.5-5.5    c1-1.8,2.5-3.4,4.6-4.6c2.1-1.2,4.9-1.9,8.2-1.9c3,0,5.6,0.3,7.7,0.9c2.1,0.6,4.1,1.6,6,3l-4.4,6.8c-1-0.8-2.2-1.5-3.5-2.1    c-1.3-0.6-2.5-0.9-3.6-1c-1-0.1-1.8,0.1-2.5,0.3c-0.7,0.3-1.2,0.6-1.6,1.1c-0.4,0.4-0.6,0.9-0.6,1.4c-0.1,1,0.3,1.9,1.2,2.5    c0.9,0.6,1.9,1.1,3.3,1.4c1.3,0.3,2.6,0.7,3.9,1.2c1.8,0.6,3.3,1.3,4.6,2.2c1.3,0.9,2.3,2.1,2.9,3.4c0.7,1.3,1,2.9,1,4.7    c0,2.2-0.6,4.3-1.7,6.3c-1.1,2-2.8,3.6-5.1,4.8C419.3,160.4,416.4,161,412.9,161z"
   id="path12" />
		<path
   class="st0"
   d="M450.6,161.2c-3.4,0-6.4-0.7-9.2-2c-2.7-1.4-4.9-3.4-6.5-6.3c-1.6-2.8-2.4-6.4-2.4-10.8    c0-4.1,0.8-7.6,2.5-10.6c1.7-3,3.8-5.3,6.5-6.9c2.7-1.6,5.6-2.4,8.6-2.4c3.6,0,6.3,0.6,8.2,1.8c1.8,1.2,3.4,2.5,4.6,3.9l-0.5,1.4    l1.1-5.3h10.8v36.2h-11.6v-7.9l0.9,2.5c-0.1,0-0.4,0.3-1,1c-0.6,0.6-1.4,1.4-2.4,2.2c-1.1,0.9-2.4,1.6-4,2.2    C454.6,160.9,452.7,161.2,450.6,161.2z M453.9,151.8c1.4,0,2.6-0.2,3.7-0.6c1.1-0.4,2.1-1,2.9-1.8c0.8-0.8,1.5-1.8,2.2-3v-8.9    c-0.4-1.2-1.1-2.3-2-3.1c-0.9-0.9-1.9-1.5-3.1-2c-1.2-0.5-2.6-0.7-4.1-0.7c-1.7,0-3.2,0.4-4.6,1.3c-1.4,0.9-2.5,2-3.4,3.5    c-0.8,1.5-1.2,3.2-1.2,5.1c0,1.9,0.4,3.7,1.3,5.2c0.9,1.5,2.1,2.8,3.5,3.6C450.6,151.3,452.2,151.8,453.9,151.8z"
   id="path14" />
	</g>
	<g
   id="g46">
		<path
   class="st0"
   d="M283.2,103.1c0,0.4,0.3,0.7,0.8,0.9c0.5,0.2,1.1,0.4,1.8,0.6c0.7,0.2,1.4,0.4,2.2,0.7    c0.7,0.3,1.3,0.7,1.8,1.4c0.5,0.6,0.8,1.5,0.8,2.4c0,1.5-0.5,2.6-1.6,3.4c-1.1,0.8-2.5,1.2-4.1,1.2c-2.9,0-4.9-1.1-6-3.4l3.2-1.8    c0.4,1.2,1.4,1.9,2.8,1.9c1.3,0,2-0.4,2-1.2c0-0.4-0.3-0.7-0.8-0.9c-0.5-0.2-1.1-0.5-1.8-0.6c-0.7-0.2-1.4-0.4-2.2-0.7    c-0.7-0.3-1.3-0.7-1.8-1.4c-0.5-0.6-0.8-1.4-0.8-2.3c0-1.4,0.5-2.5,1.6-3.3c1-0.8,2.3-1.2,3.9-1.2c1.2,0,2.2,0.3,3.2,0.8    c1,0.5,1.7,1.3,2.3,2.2l-3.1,1.7c-0.5-1-1.2-1.5-2.3-1.5c-0.5,0-0.9,0.1-1.2,0.3C283.4,102.4,283.2,102.7,283.2,103.1z"
   id="path18" />
		<path
   class="st0"
   d="M301.1,102.5h-3.2v5.9c0,0.5,0.1,0.9,0.4,1.1c0.2,0.2,0.6,0.4,1.1,0.4c0.5,0,1.1,0,1.8,0v3.3    c-2.5,0.3-4.3,0-5.4-0.7c-1-0.8-1.6-2.1-1.6-4.1v-5.9h-2.5V99h2.5v-2.9l3.7-1.1v4h3.2V102.5z"
   id="path20" />
		<path
   class="st0"
   d="M315.4,111.5c-1.5,1.5-3.3,2.2-5.4,2.2c-2.1,0-3.9-0.7-5.4-2.2c-1.5-1.5-2.2-3.2-2.2-5.4    c0-2.1,0.7-3.9,2.2-5.4c1.5-1.5,3.2-2.2,5.4-2.2c2.1,0,3.9,0.7,5.4,2.2c1.5,1.5,2.2,3.2,2.2,5.4    C317.6,108.3,316.9,110,315.4,111.5z M307.3,109c0.7,0.7,1.7,1.1,2.8,1.1c1.1,0,2-0.4,2.8-1.1c0.7-0.7,1.1-1.7,1.1-2.8    c0-1.1-0.4-2.1-1.1-2.8c-0.7-0.7-1.7-1.1-2.8-1.1c-1.1,0-2,0.4-2.8,1.1c-0.7,0.7-1.1,1.7-1.1,2.8    C306.2,107.3,306.6,108.2,307.3,109z"
   id="path22" />
		<path
   class="st0"
   d="M335.5,99h3.5l-4.2,14.3h-3.6l-2.7-8.6l-2.7,8.6h-3.6L318.1,99h3.9l2.4,8.8L327,99h3.5l2.6,8.8L335.5,99z"
   id="path24" />
		<path
   class="st0"
   d="M351.3,99h3.7v14.3h-3.7v-1.7c-1.1,1.4-2.7,2.1-4.7,2.1c-1.9,0-3.5-0.7-4.9-2.2c-1.4-1.5-2-3.2-2-5.4    c0-2.1,0.7-3.9,2-5.4c1.4-1.5,3-2.2,4.9-2.2c2,0,3.5,0.7,4.7,2.1V99z M344.5,109c0.7,0.8,1.7,1.1,2.8,1.1s2.1-0.4,2.8-1.1    c0.8-0.8,1.1-1.7,1.1-2.9c0-1.2-0.4-2.1-1.1-2.9c-0.8-0.8-1.7-1.1-2.8-1.1s-2.1,0.4-2.8,1.1c-0.7,0.8-1.1,1.7-1.1,2.9    C343.4,107.3,343.8,108.3,344.5,109z"
   id="path26" />
		<path
   class="st0"
   d="M361.7,101.5c0.3-0.9,0.9-1.6,1.7-2.1s1.7-0.7,2.6-0.7v4.1c-1.1-0.1-2.1,0.1-3,0.7c-0.9,0.6-1.3,1.6-1.3,2.9    v6.8h-3.7V99h3.7V101.5z"
   id="path28" />
		<path
   class="st0"
   d="M372.2,109.8h6.3v3.5h-11.3v-2.5l6-8.4h-5.7V99h10.7v2.4L372.2,109.8z"
   id="path30" />
		<path
   class="st0"
   d="M390.5,99h3.9l-5.2,14.3c-0.7,2-1.7,3.5-3,4.4c-1.2,0.9-2.8,1.3-4.6,1.2v-3.4c1,0,1.8-0.2,2.4-0.6    c0.6-0.4,1-1.1,1.4-2.1L379.6,99h4l3.7,9.6L390.5,99z"
   id="path32" />
		<path
   class="st0"
   d="M398.9,103.1c0,0.4,0.3,0.7,0.8,0.9c0.5,0.2,1.1,0.4,1.8,0.6c0.7,0.2,1.4,0.4,2.2,0.7    c0.7,0.3,1.3,0.7,1.8,1.4c0.5,0.6,0.8,1.5,0.8,2.4c0,1.5-0.5,2.6-1.6,3.4c-1.1,0.8-2.5,1.2-4.1,1.2c-2.9,0-4.9-1.1-6-3.4l3.2-1.8    c0.4,1.2,1.4,1.9,2.8,1.9c1.3,0,2-0.4,2-1.2c0-0.4-0.3-0.7-0.8-0.9c-0.5-0.2-1.1-0.5-1.8-0.6c-0.7-0.2-1.4-0.4-2.2-0.7    c-0.7-0.3-1.3-0.7-1.8-1.4c-0.5-0.6-0.8-1.4-0.8-2.3c0-1.4,0.5-2.5,1.6-3.3c1-0.8,2.3-1.2,3.9-1.2c1.2,0,2.2,0.3,3.2,0.8    c1,0.5,1.7,1.3,2.3,2.2l-3.1,1.7c-0.5-1-1.2-1.5-2.3-1.5c-0.5,0-0.9,0.1-1.2,0.3C399.1,102.4,398.9,102.7,398.9,103.1z"
   id="path34" />
		<path
   class="st0"
   d="M412.7,109.8h6.3v3.5h-11.3v-2.5l6-8.4h-5.7V99h10.7v2.4L412.7,109.8z"
   id="path36" />
		<path
   class="st0"
   d="M424.2,107.7c0.5,1.8,1.8,2.7,4,2.7c1.4,0,2.5-0.5,3.2-1.4l3,1.7c-1.4,2-3.5,3.1-6.2,3.1    c-2.4,0-4.3-0.7-5.7-2.1c-1.4-1.4-2.1-3.2-2.1-5.4c0-2.1,0.7-3.9,2.1-5.4c1.4-1.4,3.2-2.2,5.4-2.2c2.1,0,3.8,0.7,5.2,2.2    c1.4,1.4,2,3.2,2,5.4c0,0.5,0,1-0.1,1.5H424.2z M424.2,104.8h7.3c-0.2-1-0.6-1.7-1.3-2.2c-0.7-0.5-1.4-0.7-2.2-0.7    c-1,0-1.8,0.3-2.5,0.8C424.8,103.2,424.4,103.9,424.2,104.8z"
   id="path38" />
		<path
   class="st0"
   d="M445.3,98.6c1.6,0,2.8,0.5,3.9,1.6c1,1,1.5,2.5,1.5,4.3v8.8h-3.7V105c0-1-0.3-1.7-0.8-2.2    c-0.5-0.5-1.2-0.8-2.1-0.8c-1,0-1.7,0.3-2.3,0.9c-0.6,0.6-0.9,1.5-0.9,2.7v7.7h-3.7V99h3.7v1.6C442,99.3,443.4,98.6,445.3,98.6z"
   id="path40" />
		<path
   class="st0"
   d="M455.4,97.3c-0.6,0-1.1-0.2-1.6-0.7c-0.4-0.4-0.7-1-0.7-1.6c0-0.6,0.2-1.1,0.7-1.6c0.4-0.5,1-0.7,1.6-0.7    c0.6,0,1.2,0.2,1.6,0.7c0.4,0.5,0.7,1,0.7,1.6c0,0.6-0.2,1.1-0.7,1.6C456.6,97.1,456.1,97.3,455.4,97.3z M453.6,113.3V99h3.7v14.3    H453.6z"
   id="path42" />
		<path
   class="st0"
   d="M463.4,107.7c0.5,1.8,1.8,2.7,4,2.7c1.4,0,2.5-0.5,3.2-1.4l3,1.7c-1.4,2-3.5,3.1-6.2,3.1    c-2.4,0-4.3-0.7-5.7-2.1c-1.4-1.4-2.1-3.2-2.1-5.4c0-2.1,0.7-3.9,2.1-5.4c1.4-1.4,3.2-2.2,5.4-2.2c2.1,0,3.8,0.7,5.2,2.2    c1.4,1.4,2,3.2,2,5.4c0,0.5,0,1-0.1,1.5H463.4z M463.3,104.8h7.3c-0.2-1-0.6-1.7-1.3-2.2c-0.7-0.5-1.4-0.7-2.2-0.7    c-1,0-1.8,0.3-2.5,0.8C464,103.2,463.5,103.9,463.3,104.8z"
   id="path44" />
	</g>
	<g
   id="g72">
		<g
   id="g70">
			<path
   class="st0"
   d="M241.8,172.1h3.5l-4.2,14.3h-3.6l-2.7-8.6l-2.7,8.6h-3.6l-4.2-14.3h3.9l2.4,8.8l2.6-8.8h3.5l2.6,8.8     L241.8,172.1z"
   id="path48" />
			<path
   class="st0"
   d="M271.2,183.7c-2,2-4.5,3-7.4,3c-2.9,0-5.3-1-7.3-3c-2-2-3-4.5-3-7.4s1-5.4,3-7.4c2-2,4.5-3,7.3-3     c2.9,0,5.3,1,7.4,3c2,2,3,4.5,3,7.4S273.2,181.7,271.2,183.7z M259.3,181.1c1.2,1.2,2.8,1.8,4.6,1.8c1.8,0,3.4-0.6,4.6-1.8     c1.2-1.2,1.9-2.8,1.9-4.7c0-1.9-0.6-3.5-1.9-4.7c-1.2-1.2-2.8-1.9-4.6-1.9c-1.8,0-3.4,0.6-4.6,1.9c-1.2,1.2-1.9,2.8-1.9,4.7     C257.4,178.3,258,179.8,259.3,181.1z"
   id="path50" />
			<path
   class="st0"
   d="M279.7,176.1c0,0.4,0.3,0.7,0.8,0.9c0.5,0.2,1.1,0.4,1.8,0.6c0.7,0.2,1.4,0.4,2.2,0.7     c0.7,0.3,1.3,0.7,1.8,1.4c0.5,0.6,0.8,1.5,0.8,2.4c0,1.5-0.5,2.6-1.6,3.4c-1.1,0.8-2.5,1.2-4.1,1.2c-2.9,0-4.9-1.1-6-3.4l3.2-1.8     c0.4,1.2,1.4,1.9,2.8,1.9c1.3,0,2-0.4,2-1.2c0-0.4-0.3-0.7-0.8-0.9c-0.5-0.2-1.1-0.5-1.8-0.6c-0.7-0.2-1.4-0.4-2.2-0.7     c-0.7-0.3-1.3-0.7-1.8-1.4c-0.5-0.6-0.8-1.4-0.8-2.3c0-1.4,0.5-2.5,1.6-3.3c1-0.8,2.3-1.2,3.9-1.2c1.2,0,2.2,0.3,3.2,0.8     c1,0.5,1.7,1.3,2.3,2.2l-3.1,1.7c-0.5-1-1.2-1.5-2.3-1.5c-0.5,0-0.9,0.1-1.2,0.3C279.9,175.5,279.7,175.8,279.7,176.1z      M285.6,166.2l-3.2,3.9h-3.5l2.3-3.9H285.6z"
   id="path52" />
			<path
   class="st0"
   d="M305.2,172.1h3.5l-4.2,14.3h-3.6l-2.7-8.6l-2.7,8.6h-3.6l-4.2-14.3h3.9l2.4,8.8l2.6-8.8h3.5l2.6,8.8     L305.2,172.1z"
   id="path54" />
			<path
   class="st0"
   d="M312.3,170.4c-0.6,0-1.1-0.2-1.6-0.7c-0.4-0.4-0.7-1-0.7-1.6c0-0.6,0.2-1.1,0.7-1.6c0.4-0.5,1-0.7,1.6-0.7     c0.6,0,1.2,0.2,1.6,0.7c0.4,0.5,0.7,1,0.7,1.6c0,0.6-0.2,1.1-0.7,1.6C313.4,170.2,312.9,170.4,312.3,170.4z M310.4,186.4v-14.3     h3.7v14.3H310.4z"
   id="path56" />
			<path
   class="st0"
   d="M320.2,180.7c0.5,1.8,1.8,2.7,4,2.7c1.4,0,2.5-0.5,3.2-1.4l3,1.7c-0.2,0.4-0.6,0.8-1.1,1.2     c-1.6,1.7-2.4,3.1-2.4,4.1c0,0.5,0.2,0.8,0.7,0.8c0.2,0,0.5,0,0.8-0.1v2.3c-0.8,0.3-1.5,0.5-2.3,0.5c-0.8,0-1.5-0.2-2-0.6     c-0.5-0.4-0.7-1.1-0.7-1.9c0-1.1,0.6-2.2,1.9-3.3c-0.5,0-0.9,0.1-1.1,0.1c-2.4,0-4.3-0.7-5.7-2.1c-1.4-1.4-2.1-3.2-2.1-5.4     c0-2.1,0.7-3.9,2.1-5.4c1.4-1.4,3.2-2.2,5.4-2.2c2.1,0,3.8,0.7,5.2,2.2c1.4,1.4,2,3.2,2,5.4c0,0.5,0,1-0.1,1.5H320.2z      M320.1,177.9h7.3c-0.2-1-0.6-1.7-1.3-2.2c-0.7-0.5-1.4-0.7-2.2-0.7c-1,0-1.8,0.3-2.5,0.8C320.8,176.3,320.3,177,320.1,177.9z"
   id="path58" />
			<path
   class="st0"
   d="M340.2,186.8c-2.2,0-3.9-0.7-5.4-2.2c-1.4-1.4-2.2-3.2-2.2-5.4c0-2.1,0.7-3.9,2.2-5.4     c1.4-1.4,3.2-2.2,5.4-2.2c1.4,0,2.7,0.3,3.8,1c1.1,0.7,2,1.6,2.6,2.7l-3.2,1.9c-0.3-0.6-0.7-1.1-1.3-1.4c-0.6-0.3-1.2-0.5-2-0.5     c-1.1,0-2,0.4-2.7,1.1c-0.7,0.7-1.1,1.7-1.1,2.8c0,1.1,0.4,2.1,1.1,2.8c0.7,0.7,1.6,1.1,2.7,1.1c0.7,0,1.4-0.2,2-0.5     c0.6-0.3,1-0.8,1.3-1.4l3.2,1.8c-0.6,1.1-1.5,2-2.7,2.7S341.5,186.8,340.2,186.8z"
   id="path60" />
			<path
   class="st0"
   d="M350.2,170.4c-0.6,0-1.1-0.2-1.6-0.7c-0.4-0.4-0.7-1-0.7-1.6c0-0.6,0.2-1.1,0.7-1.6c0.4-0.5,1-0.7,1.6-0.7     c0.6,0,1.2,0.2,1.6,0.7c0.4,0.5,0.7,1,0.7,1.6c0,0.6-0.2,1.1-0.7,1.6C351.3,170.2,350.8,170.4,350.2,170.4z M348.3,186.4v-14.3     h3.7v14.3H348.3z"
   id="path62" />
			<path
   class="st0"
   d="M370.9,171.7c1.6,0,2.9,0.5,3.9,1.6c1,1.1,1.5,2.5,1.5,4.3v8.8h-3.7v-8.5c0-0.9-0.2-1.5-0.6-2     c-0.4-0.5-1-0.7-1.8-0.7c-0.8,0-1.5,0.3-2,0.8c-0.5,0.6-0.7,1.4-0.7,2.4v8h-3.7v-8.5c0-0.9-0.2-1.5-0.6-2c-0.4-0.5-1-0.7-1.8-0.7     c-0.8,0-1.5,0.3-2,0.8c-0.5,0.6-0.7,1.4-0.7,2.4v8h-3.7v-14.3h3.7v1.5c0.9-1.3,2.2-1.9,4-1.9c1.8,0,3,0.7,3.9,2.1     C367.6,172.4,369,171.7,370.9,171.7z"
   id="path64" />
			<path
   class="st0"
   d="M381,170.4c-0.6,0-1.1-0.2-1.6-0.7c-0.4-0.4-0.7-1-0.7-1.6c0-0.6,0.2-1.1,0.7-1.6c0.4-0.5,1-0.7,1.6-0.7     c0.6,0,1.2,0.2,1.6,0.7c0.4,0.5,0.7,1,0.7,1.6c0,0.6-0.2,1.1-0.7,1.6C382.1,170.2,381.6,170.4,381,170.4z M379.2,186.4v-14.3h3.7     v14.3H379.2z"
   id="path66" />
			<path
   class="st0"
   d="M395.3,172.1h3.7v14.3h-3.7v-1.6c-0.9,1.3-2.3,2-4.3,2c-1.6,0-2.8-0.5-3.9-1.6c-1-1-1.5-2.5-1.5-4.3v-8.8     h3.7v8.3c0,1,0.3,1.7,0.8,2.2c0.5,0.5,1.2,0.8,2.1,0.8c1,0,1.7-0.3,2.3-0.9c0.6-0.6,0.9-1.5,0.9-2.7V172.1z"
   id="path68" />
		</g>
	</g>
</g>
<path
   class="st1"
   d="M108.3,94.5c-4.1,0-7.9,1.6-10.6,4.6c-3.1,3.4-4.7,8.3-4.7,14.2c0,4.8,1.6,9.8,4.8,14.9c2.5,4,6,8,10.4,12  c7.4,6.7,14.9,11,15,11l0.5,0.3l0.5-0.3c0.1,0,7.6-4.3,15-11c4.4-4,7.9-8,10.4-12c3.2-5,4.8-10,4.8-14.9c0-6-1.6-10.9-4.7-14.2  c-2.7-3-6.5-4.6-10.6-4.6c-3.6,0-7.2,1.3-10.2,3.6c-2.3,1.8-4.1,4.2-5.2,7c-1.1-2.8-2.9-5.2-5.2-7C115.5,95.8,111.9,94.5,108.3,94.5  L108.3,94.5C108.3,94.5,108.3,94.5,108.3,94.5L108.3,94.5z"
   id="path76" />
<g
   id="g92">
	<path
   class="st0"
   d="M184.3,124.3c-3.2-8.9-2.9-8.8-4.2-15.8c-0.4-2.3-0.3-9.8,2-11.8c0.4,1.1,0.8,2.1,1.1,3.1   c1.6,5.5,3.1,11,4.5,16.6C188.2,119.4,184.5,124.3,184.3,124.3z"
   id="path78" />
	<path
   class="st0"
   d="M190,89.5c2.2,6.9,3.5,11,5.6,17.7c0.4,1-0.7,4.8-3.3,6.6C188.5,103,186.5,93,190,89.5z"
   id="path80" />
	<path
   class="st0"
   d="M149.8,213.2c-4-4.4-14.8-27.1-0.3-45.6c5.6-6.7,12.2-12.5,20-16.2c29.4-14,14.7-31.5,29.4-35.8   c0.1,1.3,1.4,12.5-9.1,33.2c0.3,0.2,0.9,0.7,1.7,1.3c7.5-7.1,16.9-20.5,6-54c-0.8-2.4-2.1-10.6,0.5-12.8   c4.1,6.3,13.7,23.5,13.3,47.7c-0.2,9-5,25.3-17.7,38.1c-5.8,5.9-13.1,10.1-20.1,14.4C154.1,194.7,150.2,213,149.8,213.2z"
   id="path82" />
	<g
   id="g90">
		<path
   class="st0"
   d="M97.4,213.2c4-4.4,14.8-27.1,0.3-45.6c-5.6-6.7-12.2-12.5-20-16.2c-29.4-14-14.7-31.5-29.4-35.8    c-0.1,1.3-1.4,12.5,9.1,33.2c-0.3,0.2-0.9,0.7-1.7,1.3c-7.5-7.1-16.9-20.5-6-54c0.8-2.4,2.1-10.6-0.5-12.8    c-4.1,6.3-13.7,23.5-13.3,47.7c0.2,9,5,25.3,17.7,38.1c5.8,5.9,13.1,10.1,20.1,14.4C93.2,194.7,97.1,213,97.4,213.2z"
   id="path84" />
		<path
   class="st0"
   d="M63,124.3c3.2-8.9,2.9-8.8,4.2-15.8c0.4-2.3,0.3-9.8-2-11.8c-0.4,1.1-0.8,2.1-1.1,3.1    c-1.6,5.5-3.1,11-4.5,16.6C59.1,119.4,62.8,124.3,63,124.3z"
   id="path86" />
		<path
   class="st0"
   d="M57.3,89.5c-2.2,6.9-3.5,11-5.6,17.7c-0.4,1,0.7,4.8,3.3,6.6C58.8,103,60.8,93,57.3,89.5z"
   id="path88" />
	</g>
</g>
<path
   class="st1"
   d="M123.6,41.9c-27.9,0-52.7,13.1-68.8,33.4l8.9,5.1c14.2-17.3,35.8-28.3,59.9-28.3s45.7,11,59.9,28.3l8.9-5.1  C176.3,55,151.5,41.9,123.6,41.9z"
   id="path94" />
</svg>
